<svg xmlns="http://www.w3.org/2000/svg" version="1.1" xmlns:xlink="http://www.w3.org/1999/xlink" width="1000" height="1000"><g clip-path="url(#SvgjsClipPath1352)"><rect width="1000" height="1000" fill="#ffffff"></rect><g transform="matrix(2.25,0,0,2.25,50,52.025000000000006)"><svg xmlns="http://www.w3.org/2000/svg" version="1.1" xmlns:xlink="http://www.w3.org/1999/xlink" width="400" height="398.2"><svg xmlns="http://www.w3.org/2000/svg" width="400" height="398.2"><path fill-rule="evenodd" d="M191 71c-42 5-71 49-57 89 20 60 98 64 126 7 23-46-17-101-69-96m-8 151c-55 5-88 35-94 84-1 15 3 21 20 28 36 13 138 14 176 1 19-6 24-12 23-27-4-46-32-75-79-84-13-2-35-3-46-2"></path></svg></svg></g></g><defs><clipPath id="SvgjsClipPath1352"><rect width="1000" height="1000" x="0" y="0" rx="500" ry="500"></rect></clipPath></defs></svg>